<?xml version="1.0" standalone="no"?>
<!DOCTYPE svg PUBLIC "-//W3C//DTD SVG 20010904//EN"
 "http://www.w3.org/TR/2001/REC-SVG-20010904/DTD/svg10.dtd">
<svg version="1.0" xmlns="http://www.w3.org/2000/svg"
 width="2084.000000pt" height="2084.000000pt" viewBox="0 0 2084.000000 2084.000000"
 preserveAspectRatio="xMidYMid meet">

<g transform="translate(0.000000,2084.000000) scale(0.100000,-0.100000)"
fill="#000000" stroke="none">
<path d="M11810 12475 c0 -3 9 -22 19 -43 10 -20 19 -40 19 -45 1 -4 12 -29
25 -55 14 -26 32 -63 40 -82 17 -38 161 -353 244 -533 20 -42 34 -79 32 -81
-2 -2 -53 -7 -114 -11 -253 -16 -492 -94 -702 -230 -312 -203 -570 -531 -717
-914 -46 -120 -42 -150 7 -49 100 207 263 406 467 571 136 110 382 259 500
302 25 9 54 21 65 25 11 4 48 15 82 24 214 57 434 66 716 30 37 -4 57 -3 57 4
0 5 -34 80 -75 165 -41 86 -97 204 -126 264 -28 59 -75 158 -104 218 -159 333
-198 412 -212 428 -13 14 -34 17 -120 17 -56 0 -103 -2 -103 -5z"/>
<path d="M9526 12163 c-26 -71 -58 -156 -72 -191 -13 -34 -24 -66 -24 -72 0
-5 17 -12 38 -15 123 -20 235 -57 363 -122 267 -134 482 -339 663 -633 48 -78
55 -75 32 12 -96 354 -302 690 -557 904 -126 106 -341 244 -381 244 -10 0 -31
-43 -62 -127z"/>
</g>
</svg>
